<svg version="1.1" xmlns="http://www.w3.org/2000/svg" xmlns:xlink="http://www.w3.org/1999/xlink" width="500.4363" height="380.86694" viewBox="0,0,500.4363,380.86694"><g transform="translate(9.61501,16.00288)"><g data-paper-data="{&quot;isPaintingLayer&quot;:true}" fill-rule="nonzero" stroke-linecap="butt" stroke-linejoin="miter" stroke-miterlimit="10" stroke-dasharray="" stroke-dashoffset="0" style="mix-blend-mode: normal"><path d="M1,1h478.0083v357.9116h-478.0083z" fill="#60c4ef" stroke="#60c4ef" stroke-width="1.99005"/><g><path d="M-0.95,-15.00085h480.9419v301.96602l-479.988,-15.61893z" fill="#99ffff" stroke="#ccffff" stroke-width="2.00406"/><path d="M437.9382,267.17046c15.7679,-0.09153 34.9759,-16.61958 48.0633,-8.32854c8.9626,5.77744 -2.5869,24.13177 -3.9633,36.46552c-1.4599,13.24017 1.6531,28.67584 -6.0529,39.54193c-7.1194,10.06484 -20.0871,17.41053 -31.9941,17.33243c-17.7135,-0.11548 -37.8958,-6.13762 -50.9398,-16.05231c-13.0441,-9.91625 -21.119,-23.60968 -21.119,-38.7211c0,-15.11153 8.1512,-32.594 21.119,-38.7211c13.6277,-6.43771 29.6911,8.57021 44.8868,8.48316z" fill="#00cc44" stroke="#00cc44" stroke-width="2.88235"/><path d="M76,257.80983c12.4606,-0.46753 22.3049,-14.6845 33.9765,-12.49515c11.8381,2.15802 23.5477,12.63915 24.9235,22.83425c1.2842,9.63053 -6.2622,18.81134 -16.378,25.28726c-10.1158,6.47488 -24.0864,10.48311 -39.5044,10.48311c-15.4179,0 -29.3885,-4.00823 -39.5043,-10.48311c-10.1158,-6.47592 -15.3967,-15.64007 -16.378,-25.28726c-0.8069,-8.09394 2.4007,-19.10924 10.8412,-20.72726c14.3617,-2.97239 27.6953,10.66544 42.0235,10.38815z" fill="#00cc44" stroke="#00cc44" stroke-width="2.06637"/><path d="M191.05,253.62333c17.9167,-0.52677 35.7138,-19.52783 52.381,-13.21018c13.3669,5.07824 21.119,23.60958 21.119,38.7211c0,15.11142 -8.0749,28.80485 -21.119,38.7211c-13.0441,9.91469 -31.0588,16.05231 -50.9398,16.05231c-19.8811,0 -37.8958,-6.13762 -50.9398,-16.05231c-13.0441,-9.91625 -21.119,-23.60968 -21.119,-38.7211c0,-15.11153 7.8025,-33.4898 21.119,-38.7211c15.8414,-6.2231 32.5244,12.68341 49.4986,13.21018z" fill="#00cc44" stroke="#00cc44" stroke-width="2.88235"/><path d="M318.9779,255.72574c17.8894,-0.17858 36.7241,-14.19157 52.4531,-6.9825c13.0253,5.98007 21.119,23.60958 21.119,38.7211c0,15.11142 -8.0749,28.80485 -21.119,38.7211c-13.0441,9.91469 -31.0588,16.05231 -50.9398,16.05231c-19.8811,0 -37.8958,-6.13762 -50.9398,-16.05231c-13.0441,-9.91625 -21.119,-23.60968 -21.119,-38.7211c0,-15.11153 8.1109,-32.69303 21.119,-38.7211c15.484,-7.17607 33.1081,6.80392 49.4265,6.9825z" fill="#00cc44" stroke="#00cc44" stroke-width="2.88235"/><path d="M-8.0105,252.6004c7.3406,-3.79748 19.9995,0.38131 27.5973,7.49417c5.7386,5.39103 10.2653,15.60373 10.2653,25.28726c0,9.68353 -4.0322,21.08202 -10.2653,25.28726l-20.5922,-3.92306l-0.9807,-36.40742c-0.3265,-12.12373 -9.4702,-16.41321 -6.0244,-17.73821z" fill="#00cc44" stroke="#00cc44" stroke-width="1.65923"/><path d="M1,275.51129l470,-3.12379l8,62.47573l-480,5.20631z" fill="#00cc44" stroke="#00cc44" stroke-width="2"/><path d="M-5.9875,337.5879h484.975v25.9621h-484.975z" fill="#663b00" stroke="#663b00" stroke-width="2.62812"/></g></g></g></svg>