<svg xmlns="http://www.w3.org/2000/svg" xmlns:xlink="http://www.w3.org/1999/xlink" version="1.1" width="33.859063009564416" height="32.362263540570275" viewBox="0.06041784080647772 0.7737179497160847 33.859063009564416 32.362263540570275">
  <!-- Exported by Scratch - http://scratch.mit.edu/ -->
  <path id="ID0.5278752730228007" fill="#F25840" stroke="#CC0000" stroke-width="2.142964224164022" d="M 16.9899 1.8452 C 21.3649 1.8452 25.3299 3.5386 28.2002 6.273 C 31.0715 9.0085 32.848 12.7862 32.848 16.9549 C 32.848 21.1235 31.0715 24.9012 28.2002 27.6367 C 25.3299 30.3711 21.3649 32.0645 16.9899 32.0645 C 12.615 32.0645 8.65 30.3711 5.7797 27.6367 C 2.9084 24.9012 1.1319 21.1235 1.1319 16.9549 C 1.1319 12.7862 2.9084 9.0085 5.7797 6.273 C 8.65 3.5386 12.615 1.8452 16.9899 1.8452 Z "/>
  <path id="ID0.3074865215457976" fill="#FFFFFF" stroke="#FFFFFF" stroke-width="2" stroke-linecap="round" d="M 23.25 17.35 L 13.55 12.75 L 13.55 21.75 L 23.45 17.45 Z "/>
</svg>