<svg xmlns="http://www.w3.org/2000/svg" xmlns:xlink="http://www.w3.org/1999/xlink" version="1.1" width="23.062007904052734" height="24.93778419494629" viewBox="-0.014665961265563965 -0.4526612162590027 23.062007904052734 24.93778419494629">
  <!-- Exported by Scratch - http://scratch.mit.edu/ -->
  <path id="ID0.31380706559866667" fill="#FFFF00" stroke="#000000" stroke-width="1.433098554611206" stroke-linecap="round" d="M 11.0966 5.1519 C 14.0129 5.1333 17.7168 2.7766 19.8026 4.7937 C 22.4388 7.3439 22.1973 11.8259 21.809 15.3986 C 21.4994 18.2469 20.1401 21.3639 17.7605 22.994 C 16.1626 24.0832 13.9312 22.1141 11.9564 22.1342 C 9.9816 22.1542 7.7066 24.3067 6.1165 23.1373 C 3.4359 21.3495 1.8954 17.9631 1.3515 14.7895 C 0.7969 11.5514 0.5791 7.3775 2.8921 5.0445 C 4.8447 3.0747 8.3644 5.1691 11.0966 5.1519 Z "/>
  <path id="ID0.05603655381128192" fill="#CC7700" stroke="#000000" stroke-linecap="round" d="M 13.5 0.55 C 14.028 0.492 14.516 1.396 14.35 1.9 C 14.095 2.673 12.805 2.72 12.5 3.45 C 12.08 4.479 12.565 5.695 12.35 6.75 C 12.281 7.086 12.019 7.552 11.7 7.55 C 11.253 7.545 10.708 7.282 10.55 6.85 C 10.263 6.068 10.401 5.174 10.45 4.35 C 10.49 3.672 10.402 2.898 10.85 2.35 C 11.524 1.524 12.432 0.667 13.5 0.55 Z " stroke-width="1"/>
  <path id="ID0.012350889388471842" fill="#00CC44" stroke="#000000" stroke-width="1.0000000182242756" stroke-linecap="round" d="M 15.3051 3.3445 C 15.7699 3.2059 16.2706 3.1526 16.7565 3.2247 C 17.4067 3.2635 18.4797 3.1877 18.6642 3.6732 C 18.8296 4.1123 17.9606 4.6344 17.4911 4.9883 C 17.0702 5.3508 16.5724 5.6516 16.034 5.7882 C 15.4744 5.931 14.8657 5.8705 14.3002 5.8357 C 13.7394 5.7608 12.7799 5.8779 12.6749 5.4595 C 12.5617 5.0028 13.4497 4.4885 13.9438 4.1158 C 14.3369 3.7752 14.7864 3.4982 15.3051 3.3445 Z "/>
  <path id="ID0.006273109000176191" fill="#FF9999" stroke="#FFFFFF" stroke-width="2" stroke-linecap="round" d="M 18.65 6.3 C 19.319 6.535 19.355 7.501 19.642 8.185 C 19.813 8.592 19.916 9.031 19.95 9.475 C 19.989 9.962 20.01 10.489 19.95 11 C 19.858 11.393 19.771 12.256 19.5 12.15 C 19.069 11.981 18.903 10.996 18.65 10.4 C 18.222 9.055 18.261 8.597 17.8 8.35 C 16.755 7.846 14.812 8.146 14.35 7.75 C 14.059 7.5 15.597 7.185 16.25 6.95 C 17.032 6.702 17.851 6.019 18.65 6.3 Z "/>
</svg>