<svg xmlns="http://www.w3.org/2000/svg" xmlns:xlink="http://www.w3.org/1999/xlink" version="1.1" width="22.49510645866394" height="24.420883893966675" viewBox="0.4187847375869751 0.7307895421981812 22.49510645866394 24.420883893966675">
  <!-- Exported by Scratch - http://scratch.mit.edu/ -->
  <path id="ID0.31380706559866667" fill="#FF0000" stroke="#000000" stroke-width="1.433098554611206" stroke-linecap="round" d="M 11.2466 6.1019 C 14.1629 6.0833 17.8668 3.7266 19.9526 5.7437 C 22.5888 8.2939 22.3473 12.7759 21.959 16.3486 C 21.6494 19.1969 20.2901 22.3139 17.9105 23.944 C 16.3126 25.0332 14.0812 23.0641 12.1064 23.0842 C 10.1316 23.1042 7.8566 25.2567 6.2665 24.0873 C 3.5859 22.2995 2.0454 18.9131 1.5015 15.7395 C 0.9469 12.5014 0.7291 8.3275 3.0421 5.9945 C 4.9947 4.0247 8.5144 6.1191 11.2466 6.1019 Z "/>
  <path id="ID0.05603655381128192" fill="#CC7700" stroke="#000000" stroke-linecap="round" d="M 13.6 1.45 C 14.128 1.392 14.616 2.296 14.45 2.8 C 14.195 3.573 12.905 3.62 12.6 4.35 C 12.18 5.379 12.665 6.595 12.45 7.65 C 12.381 7.986 12.119 8.452 11.8 8.45 C 11.353 8.445 10.808 8.182 10.65 7.75 C 10.363 6.968 10.501 6.074 10.55 5.25 C 10.59 4.572 10.502 3.798 10.95 3.25 C 11.624 2.424 12.532 1.567 13.6 1.45 Z " stroke-width="1"/>
  <path id="ID0.012350889388471842" fill="#00CC44" stroke="#000000" stroke-width="1.0000000182242756" stroke-linecap="round" d="M 15.3551 4.2445 C 15.8199 4.1059 16.3206 4.0526 16.8065 4.1247 C 17.4567 4.1635 18.5297 4.0877 18.7142 4.5732 C 18.8796 5.0123 18.0106 5.5344 17.5411 5.8883 C 17.1202 6.2508 16.6224 6.5516 16.084 6.6882 C 15.5244 6.831 14.9157 6.7705 14.3502 6.7357 C 13.7894 6.6608 12.8299 6.7779 12.7249 6.3595 C 12.6117 5.9028 13.4997 5.3885 13.9938 5.0158 C 14.3869 4.6752 14.8364 4.3982 15.3551 4.2445 Z "/>
  <path id="ID0.006273109000176191" fill="#FF9999" stroke="#FF9999" stroke-width="1" stroke-linecap="round" d="M 18.8 7.2 C 19.469 7.435 19.505 8.401 19.792 9.085 C 19.963 9.492 20.066 9.931 20.1 10.375 C 20.139 10.862 20.16 11.389 20.1 11.9 C 20.008 12.293 19.921 13.156 19.65 13.05 C 19.219 12.881 19.053 11.896 18.8 11.3 C 18.372 9.955 18.411 9.497 17.95 9.25 C 16.905 8.746 14.962 9.046 14.5 8.65 C 14.209 8.4 15.747 8.085 16.4 7.85 C 17.182 7.602 18.001 6.919 18.8 7.2 Z "/>
</svg>