<svg xmlns="http://www.w3.org/2000/svg" xmlns:xlink="http://www.w3.org/1999/xlink" version="1.1" width="63.246239508569865" height="23.806526984155802" viewBox="1.0173116498288375 0.28247197201816854 63.246239508569865 23.806526984155802">
  <!-- Exported by Scratch - http://scratch.mit.edu/ -->
  <path id="ID0.7010071603581309" fill="#462D04" stroke="#663B00" stroke-width="2.6052559270268953" d="M 31.6857 1.5851 C 40.249 1.5851 48.0094 1.8814 53.6289 2.3615 C 59.2484 2.8404 62.7271 3.503 62.7271 4.2332 C 62.7271 4.9634 59.2484 5.626 53.6289 6.1049 C 48.0094 6.585 40.249 6.8813 31.6857 6.8813 C 23.1223 6.8813 16.9694 6.754 9.7424 6.1049 C 7.042 5.8627 2.2794 5.1865 2.3202 4.3459 C 2.2794 3.4523 7.042 2.6026 9.7424 2.3615 C 16.9694 1.7147 23.1223 1.5851 31.6857 1.5851 Z "/>
  <path id="ID0.1466909684240818" fill="#995900" stroke="#663B00" stroke-width="2.3538792034697775" stroke-linecap="round" d="M 31.6529 6.85 C 37.8121 6.767 44.0071 6.865 50.1476 6.5 C 53.2039 6.318 56.2376 6.01 59.2619 5.5 C 60.4009 5.391 62.3608 3.787 62.5883 4.65 C 63.4918 8.071 62.5923 11.649 61.5904 15 C 60.9078 17.557 60.2013 20.465 57.5987 22.15 C 55.7652 23.338 52.6637 22.498 50.1476 22.5 C 44.5673 22.398 38.9284 21.886 33.3161 21.85 C 25.8717 21.802 18.3807 23.128 11.0294 22.35 C 9.0455 22.139 7.5899 20.615 6.9046 19.25 C 4.644 14.73 2.6376 9.938 2.7134 5.1 C 2.6376 3.901 5.3665 6.008 6.9046 6.25 C 9.3129 6.628 11.7412 6.924 14.2227 7 C 20.0226 7.173 25.881 6.928 31.6529 6.85 Z "/>
  <path id="ID0.22106111841276288" fill="none" stroke="#663B00" stroke-width="2.2506730175283214" stroke-linecap="round" d="M 9.4686 6.35 L 13.3066 21.35 "/>
  <path id="ID0.5490809720940888" fill="none" stroke="#663B00" stroke-width="2.2506730175283214" stroke-linecap="round" d="M 17.0207 7.25 L 19.992 21.75 "/>
  <path id="ID0.793657052796334" fill="none" stroke="#663B00" stroke-width="2.2506730175283214" stroke-linecap="round" d="M 25.4394 6.85 L 27.5441 21.35 "/>
  <path id="ID0.2249255944043398" fill="none" stroke="#663B00" stroke-width="2.2506730175283214" stroke-linecap="round" d="M 33.7344 7.45 L 34.7248 21.45 "/>
  <path id="ID0.9238218637183309" fill="none" stroke="#663B00" stroke-width="2.2506730175283214" stroke-linecap="round" d="M 42.4007 7.1 L 41.6579 20.95 "/>
  <path id="ID0.15359777864068747" fill="none" stroke="#663B00" stroke-width="2.2506730175283214" stroke-linecap="round" d="M 53.1098 6.75 L 49.5814 21.6 "/>
  <path id="ID0.4207979650236666" fill="none" stroke="#663B00" stroke-width="2.2506730175283214" stroke-linecap="round" d="M 60.8476 5.95 L 55.5859 21.75 "/>
  <path id="ID0.034856213722378016" fill="none" stroke="#663B00" stroke-width="2.2506730175283214" stroke-linecap="round" d="M 4.2069 10.95 L 60.9714 10.35 "/>
  <path id="ID0.25582692958414555" fill="none" stroke="#663B00" stroke-width="2.2506730175283214" stroke-linecap="round" d="M 5.2592 14.25 L 60.5381 13.95 "/>
  <path id="ID0.2248775502666831" fill="none" stroke="#663B00" stroke-width="2.2506730175283214" stroke-linecap="round" d="M 7.302 18.35 L 58.8668 18.6 "/>
</svg>